<?xml version="1.0" encoding="UTF-8" standalone="no"?>
<!-- Created with Inkscape (http://www.inkscape.org/) -->

<svg
   xmlns:dc="http://purl.org/dc/elements/1.1/"
   xmlns:cc="http://creativecommons.org/ns#"
   xmlns:rdf="http://www.w3.org/1999/02/22-rdf-syntax-ns#"
   xmlns:svg="http://www.w3.org/2000/svg"
   xmlns="http://www.w3.org/2000/svg"
   xmlns:sodipodi="http://sodipodi.sourceforge.net/DTD/sodipodi-0.dtd"
   xmlns:inkscape="http://www.inkscape.org/namespaces/inkscape"
   width="100%"
   height="100%"
   viewBox="0 0 640 415"
   id="svg3055"
   version="1.1"
   inkscape:version="0.48.4 r9939"
   sodipodi:docname="linked-stats-analysis-architecture.svg">
  <title
     id="title4948">Linked Stats Analysis architecture</title>
  <defs
     id="defs3057">
    <marker
       inkscape:stockid="Arrow2Mend"
       orient="auto"
       refY="0"
       refX="0"
       id="Arrow2Mend"
       style="overflow:visible">
      <path
         id="path4239"
         style="fill-rule:evenodd;stroke-width:0.625;stroke-linejoin:round"
         d="M 8.7185878,4.0337352 -2.2072895,0.01601326 8.7185884,-4.0017078 c -1.7454984,2.3720609 -1.7354408,5.6174519 -6e-7,8.035443 z"
         transform="scale(-0.6,-0.6)"
         inkscape:connector-curvature="0" />
    </marker>
    <marker
       inkscape:stockid="Arrow2Mend"
       orient="auto"
       refY="0"
       refX="0"
       id="Arrow2Mend-3"
       style="overflow:visible">
      <path
         id="path4239-6"
         style="fill-rule:evenodd;stroke-width:0.625;stroke-linejoin:round"
         d="M 8.7185878,4.0337352 -2.2072895,0.01601326 8.7185884,-4.0017078 c -1.7454984,2.3720609 -1.7354408,5.6174519 -6e-7,8.035443 z"
         transform="scale(-0.6,-0.6)"
         inkscape:connector-curvature="0" />
    </marker>
    <marker
       inkscape:stockid="Arrow2Mend"
       orient="auto"
       refY="0"
       refX="0"
       id="Arrow2Mend-2"
       style="overflow:visible">
      <path
         id="path4239-3"
         style="fill-rule:evenodd;stroke-width:0.625;stroke-linejoin:round"
         d="M 8.7185878,4.0337352 -2.2072895,0.01601326 8.7185884,-4.0017078 c -1.7454984,2.3720609 -1.7354408,5.6174519 -6e-7,8.035443 z"
         transform="scale(-0.6,-0.6)"
         inkscape:connector-curvature="0" />
    </marker>
    <marker
       inkscape:stockid="Arrow2Mend"
       orient="auto"
       refY="0"
       refX="0"
       id="Arrow2Mend-22"
       style="overflow:visible">
      <path
         id="path4239-64"
         style="fill-rule:evenodd;stroke-width:0.625;stroke-linejoin:round"
         d="M 8.7185878,4.0337352 -2.2072895,0.01601326 8.7185884,-4.0017078 c -1.7454984,2.3720609 -1.7354408,5.6174519 -6e-7,8.035443 z"
         transform="scale(-0.6,-0.6)"
         inkscape:connector-curvature="0" />
    </marker>
    <marker
       inkscape:stockid="Arrow2Mend"
       orient="auto"
       refY="0"
       refX="0"
       id="Arrow2Mend-1"
       style="overflow:visible">
      <path
         id="path4239-2"
         style="fill-rule:evenodd;stroke-width:0.625;stroke-linejoin:round"
         d="M 8.7185878,4.0337352 -2.2072895,0.01601326 8.7185884,-4.0017078 c -1.7454984,2.3720609 -1.7354408,5.6174519 -6e-7,8.035443 z"
         transform="scale(-0.6,-0.6)"
         inkscape:connector-curvature="0" />
    </marker>
    <marker
       inkscape:stockid="Arrow2Mend"
       orient="auto"
       refY="0"
       refX="0"
       id="Arrow2Mend-9"
       style="overflow:visible">
      <path
         id="path4239-29"
         style="fill-rule:evenodd;stroke-width:0.625;stroke-linejoin:round"
         d="M 8.7185878,4.0337352 -2.2072895,0.01601326 8.7185884,-4.0017078 c -1.7454984,2.3720609 -1.7354408,5.6174519 -6e-7,8.035443 z"
         transform="scale(-0.6,-0.6)"
         inkscape:connector-curvature="0" />
    </marker>
    <marker
       inkscape:stockid="Arrow2Mend"
       orient="auto"
       refY="0"
       refX="0"
       id="Arrow2Mend-24"
       style="overflow:visible">
      <path
         id="path4239-0"
         style="fill-rule:evenodd;stroke-width:0.625;stroke-linejoin:round"
         d="M 8.7185878,4.0337352 -2.2072895,0.01601326 8.7185884,-4.0017078 c -1.7454984,2.3720609 -1.7354408,5.6174519 -6e-7,8.035443 z"
         transform="scale(-0.6,-0.6)"
         inkscape:connector-curvature="0" />
    </marker>
    <marker
       inkscape:stockid="Arrow2Mend"
       orient="auto"
       refY="0"
       refX="0"
       id="Arrow2Mend-8"
       style="overflow:visible">
      <path
         id="path4239-20"
         style="fill-rule:evenodd;stroke-width:0.625;stroke-linejoin:round"
         d="M 8.7185878,4.0337352 -2.2072895,0.01601326 8.7185884,-4.0017078 c -1.7454984,2.3720609 -1.7354408,5.6174519 -6e-7,8.035443 z"
         transform="scale(-0.6,-0.6)"
         inkscape:connector-curvature="0" />
    </marker>
  </defs>
  <sodipodi:namedview
     id="base"
     pagecolor="#ffffff"
     bordercolor="#666666"
     borderopacity="1.0"
     inkscape:pageopacity="0.0"
     inkscape:pageshadow="2"
     inkscape:zoom="1.4"
     inkscape:cx="264.8561"
     inkscape:cy="201.97337"
     inkscape:document-units="px"
     inkscape:current-layer="layer1"
     showgrid="true"
     inkscape:window-width="1615"
     inkscape:window-height="1026"
     inkscape:window-x="65"
     inkscape:window-y="24"
     inkscape:window-maximized="1"
     showguides="true"
     inkscape:guide-bbox="true"
     fit-margin-top="10"
     fit-margin-left="10"
     fit-margin-right="10"
     fit-margin-bottom="10">
    <inkscape:grid
       type="xygrid"
       id="grid3063"
       empspacing="5"
       visible="true"
       enabled="true"
       snapvisiblegridlinesonly="true"
       originx="111.28571px"
       originy="-701.70654px" />
    <sodipodi:guide
       orientation="1,0"
       position="226.28572,378.29346"
       id="guide3082" />
    <sodipodi:guide
       orientation="1,0"
       position="166.28571,268.29346"
       id="guide6301" />
    <sodipodi:guide
       orientation="1,0"
       position="191.28571,208.29346"
       id="guide6329" />
  </sodipodi:namedview>
  <metadata
     id="metadata3060">
    <rdf:RDF>
      <cc:Work
         rdf:about="">
        <dc:format>image/svg+xml</dc:format>
        <dc:type
           rdf:resource="http://purl.org/dc/dcmitype/StillImage" />
        <dc:title>Linked Stats Analysis architecture</dc:title>
        <dc:creator>
          <cc:Agent>
            <dc:title>http://csarven.ca/#i</dc:title>
          </cc:Agent>
        </dc:creator>
        <dc:rights>
          <cc:Agent>
            <dc:title>http://csarven.ca/#i</dc:title>
          </cc:Agent>
        </dc:rights>
        <dc:publisher>
          <cc:Agent>
            <dc:title>http://csarven.ca/#i</dc:title>
          </cc:Agent>
        </dc:publisher>
        <dc:identifier>http://csarven.ca/media/images/articles/linked-stats-analysis-architecture.svg</dc:identifier>
        <dc:language>en</dc:language>
        <dc:subject>
          <rdf:Bag>
            <rdf:li>architecture</rdf:li>
            <rdf:li>statistics</rdf:li>
            <rdf:li>analysis</rdf:li>
            <rdf:li>linkeddata</rdf:li>
          </rdf:Bag>
        </dc:subject>
        <cc:license
           rdf:resource="http://creativecommons.org/licenses/by-sa/3.0/" />
      </cc:Work>
    </rdf:RDF>
  </metadata>
  <g
     inkscape:label="Layer 1"
     inkscape:groupmode="layer"
     id="layer1"
     transform="translate(111.28571,-558.01781)">
    <text
       xml:space="preserve"
       style="font-size:62.54728699px;font-style:normal;font-weight:normal;line-height:125%;letter-spacing:0px;word-spacing:0px;fill:#000000;fill-opacity:1;stroke:none;font-family:Sans"
       x="-100"
       y="945.64343"
       id="text3845"
       sodipodi:linespacing="125%"><tspan
         sodipodi:role="line"
         id="tspan3847"
         x="-100"
         y="945.64343"
         style="font-size:18.76418686px">Return Analysis</tspan></text>
    <text
       xml:space="preserve"
       style="font-size:18.76418686px;font-style:normal;font-weight:normal;line-height:125%;letter-spacing:0px;word-spacing:0px;fill:#000000;fill-opacity:1;stroke:none;font-family:Sans"
       x="88"
       y="946.36218"
       id="text3849"
       sodipodi:linespacing="125%"><tspan
         sodipodi:role="line"
         id="tspan3851"
         x="88"
         y="946.36218"
         style="font-size:17.20050621px">Create/Store/Use Plot</tspan></text>
    <text
       xml:space="preserve"
       style="font-size:18.76418686px;font-style:normal;font-weight:normal;line-height:125%;letter-spacing:0px;word-spacing:0px;fill:#000000;fill-opacity:1;stroke:none;font-family:Sans"
       x="-100"
       y="859.09613"
       id="text3855"
       sodipodi:linespacing="125%"><tspan
         sodipodi:role="line"
         id="tspan3857"
         x="-100"
         y="859.09613">Update</tspan><tspan
         sodipodi:role="line"
         x="-100"
         y="882.55139"
         id="tspan6724">Cache and Store</tspan></text>
    <text
       xml:space="preserve"
       style="font-size:18.76418686px;font-style:normal;font-weight:normal;line-height:110.00000238%;letter-spacing:0px;word-spacing:0px;fill:#000000;fill-opacity:1;stroke:none;font-family:Sans"
       x="283.10214"
       y="770.54883"
       id="text3889"
       sodipodi:linespacing="110%"><tspan
         sodipodi:role="line"
         id="tspan3891"
         x="283.10214"
         y="770.54883"
         style="font-size:17.20050621px;line-height:110.00000238%">Correlation value</tspan><tspan
         sodipodi:role="line"
         x="283.10214"
         y="789.46936"
         style="font-size:17.20050621px;line-height:110.00000238%"
         id="tspan6557">p-value test</tspan><tspan
         sodipodi:role="line"
         x="283.10214"
         y="808.38995"
         style="font-size:17.20050621px;line-height:110.00000238%"
         id="tspan6559">Line of best fit</tspan></text>
    <text
       xml:space="preserve"
       style="font-size:18.76418686px;font-style:normal;font-weight:normal;line-height:125%;letter-spacing:0px;word-spacing:0px;fill:#000000;fill-opacity:1;stroke:none;font-family:Sans"
       x="87.641861"
       y="780.54883"
       id="text3903"
       sodipodi:linespacing="125%"><tspan
         sodipodi:role="line"
         x="87.641861"
         y="780.54883"
         id="tspan3909"
         style="font-size:17.20050621px">Write query result</tspan><tspan
         sodipodi:role="line"
         x="87.641861"
         y="802.04944"
         style="font-size:17.20050621px"
         id="tspan6555">local disk (CSV)</tspan></text>
    <text
       xml:space="preserve"
       style="font-size:18.76418686px;font-style:normal;font-weight:normal;line-height:125%;letter-spacing:0px;word-spacing:0px;fill:#000000;fill-opacity:1;stroke:none;font-family:Sans"
       x="-100"
       y="624.36218"
       id="text3948"
       sodipodi:linespacing="125%"><tspan
         sodipodi:role="line"
         x="-100"
         y="624.36218"
         id="tspan4938">Check</tspan><tspan
         sodipodi:role="line"
         x="-100"
         y="647.81744"
         id="tspan4944">Analysis URI</tspan></text>
    <text
       xml:space="preserve"
       style="font-size:18.76418686px;font-style:normal;font-weight:normal;line-height:125%;letter-spacing:0px;word-spacing:0px;fill:#000000;fill-opacity:1;stroke:none;font-family:Sans"
       x="80"
       y="629.36218"
       id="text3952"
       sodipodi:linespacing="125%"
       inkscape:transform-center-x="-3.4744142"><tspan
         sodipodi:role="line"
         x="80"
         y="629.36218"
         id="tspan3956"
         style="font-size:17.20050621px">Shiny</tspan><tspan
         sodipodi:role="line"
         x="80"
         y="650.86279"
         style="font-size:17.20050621px"
         id="tspan6272">Cache</tspan></text>
    <text
       xml:space="preserve"
       style="font-size:18.76418686px;font-style:normal;font-weight:normal;line-height:125%;letter-spacing:0px;word-spacing:0px;fill:#000000;fill-opacity:1;stroke:none;font-family:Sans"
       x="-98.436325"
       y="696.72791"
       id="text3062"
       sodipodi:linespacing="125%"><tspan
         sodipodi:role="line"
         x="-98.436325"
         y="696.72791"
         id="tspan3084">Get</tspan><tspan
         sodipodi:role="line"
         x="-98.436325"
         y="720.18317"
         id="tspan4946">Analysis Data</tspan></text>
    <text
       xml:space="preserve"
       style="font-size:18.76418686px;font-style:normal;font-weight:normal;line-height:125%;letter-spacing:0px;word-spacing:0px;fill:#000000;fill-opacity:1;stroke:none;font-family:Sans"
       x="-100"
       y="792.54883"
       id="text3066"
       sodipodi:linespacing="125%"><tspan
         sodipodi:role="line"
         id="tspan3068"
         x="-100"
         y="792.54883">Build Analysis</tspan></text>
    <rect
       style="fill:none;stroke:#000000;stroke-width:0.78803241;stroke-miterlimit:4;stroke-opacity:1;stroke-dasharray:none"
       id="rect3102"
       width="166.98814"
       height="54.557041"
       x="80.967461"
       y="757.4519" />
    <rect
       style="fill:none;stroke:#000000;stroke-width:0.5;stroke-miterlimit:4;stroke-opacity:1;stroke-dasharray:none"
       id="rect3104"
       width="162.00455"
       height="60.888664"
       x="274.9762"
       y="753.57178" />
    <rect
       style="fill:none;stroke:#000000;stroke-width:0.65292287;stroke-miterlimit:4;stroke-opacity:1;stroke-dasharray:none"
       id="rect3896"
       width="200.96591"
       height="31.120722"
       x="78.767006"
       y="924.28491" />
    <path
       style="fill:none;stroke:#000000;stroke-width:0.7818411;stroke-linecap:butt;stroke-linejoin:miter;stroke-miterlimit:4;stroke-opacity:1;stroke-dasharray:1.56368223, 3.12736446;stroke-dashoffset:0"
       d="m -98.436323,667.45425 617.654483,0"
       id="path3910"
       inkscape:connector-curvature="0" />
    <path
       style="fill:none;stroke:#000000;stroke-width:0.7818411;stroke-linecap:butt;stroke-linejoin:miter;stroke-miterlimit:4;stroke-opacity:1;stroke-dasharray:1.56368223, 3.12736446;stroke-dashoffset:0"
       d="m -100,747.45676 617.65448,0"
       id="path3910-0"
       inkscape:connector-curvature="0" />
    <path
       style="fill:none;stroke:#000000;stroke-width:0.7818411;stroke-linecap:butt;stroke-linejoin:miter;stroke-miterlimit:4;stroke-opacity:1;stroke-dasharray:1.56368223, 3.12736446;stroke-dashoffset:0"
       d="m -100,824.00406 617.65448,0"
       id="path3910-9"
       inkscape:connector-curvature="0" />
    <path
       style="fill:none;stroke:#000000;stroke-width:0.7818411;stroke-linecap:butt;stroke-linejoin:miter;stroke-miterlimit:4;stroke-opacity:1;stroke-dasharray:1.56368223, 3.12736446;stroke-dashoffset:0"
       d="m -100,904.55134 617.65448,0"
       id="path3910-20"
       inkscape:connector-curvature="0" />
    <path
       style="fill:none;stroke:#000000;stroke-width:0.7818411;stroke-linecap:butt;stroke-linejoin:miter;stroke-miterlimit:4;stroke-opacity:1;stroke-dasharray:1.56368223, 3.12736446;stroke-dashoffset:0"
       d="m -100.89479,591.7304 617.65448,0"
       id="path3910-8"
       inkscape:connector-curvature="0" />
    <path
       style="fill:none;stroke:#000000;stroke-width:1.64971066;stroke-linecap:butt;stroke-linejoin:miter;stroke-miterlimit:4;stroke-opacity:1;stroke-dasharray:none;marker-end:url(#Arrow2Mend)"
       d="m 65.656247,666.58273 0,234.71051"
       id="path6304"
       inkscape:connector-type="polyline"
       inkscape:connector-curvature="0" />
    <g
       transform="matrix(0.81498834,0,0,0.81498834,-491.46646,456.28009)"
       style="fill:none;stroke:none"
       id="id16_Graphic">
      <path
         style="fill:none"
         inkscape:connector-curvature="0"
         id="path108"
         d="m 683.37597,241.00376 0,-57.59832 c 0,-3.97428 22.51283,-7.19979 50.25183,-7.19979 27.739,0 50.25184,3.22551 50.25184,7.19979 l 0,57.59832 c 0,3.97429 -22.51284,7.19979 -50.25184,7.19979 -27.739,0 -50.25183,-3.2255 -50.25183,-7.19979" />
      <path
         style="fill:none;stroke:#000000;stroke-width:1;stroke-linecap:round;stroke-linejoin:round"
         inkscape:connector-curvature="0"
         id="path110"
         d="m 683.37597,241.00376 0,-57.59832 c 0,-3.97428 22.51283,-7.19979 50.25183,-7.19979 27.739,0 50.25184,3.22551 50.25184,7.19979 l 0,57.59832 c 0,3.97429 -22.51284,7.19979 -50.25184,7.19979 -27.739,0 -50.25183,-3.2255 -50.25183,-7.19979 m 0,-57.59832 c 0,3.97429 22.51283,7.19979 50.25183,7.19979 27.739,0 50.25184,-3.2255 50.25184,-7.19979" />
      <text
         style="fill:none"
         id="text112"
         transform="translate(688.37597,203.8045)" />
    </g>
    <g
       transform="matrix(1.1532518,0,0,0.75949021,-565.78586,466.73472)"
       style="fill:none;stroke:none"
       id="id16_Graphic-9">
      <path
         style="fill:none"
         inkscape:connector-curvature="0"
         id="path108-6"
         d="m 683.37597,241.00376 0,-57.59832 c 0,-3.97428 22.51283,-7.19979 50.25183,-7.19979 27.739,0 50.25184,3.22551 50.25184,7.19979 l 0,57.59832 c 0,3.97429 -22.51284,7.19979 -50.25184,7.19979 -27.739,0 -50.25183,-3.2255 -50.25183,-7.19979" />
      <path
         style="fill:none;stroke:#000000;stroke-width:0.87083215;stroke-linecap:round;stroke-linejoin:round;stroke-miterlimit:4;stroke-dasharray:none"
         inkscape:connector-curvature="0"
         id="path110-9"
         d="m 683.37597,241.00376 0,-57.59832 c 0,-3.97428 22.51283,-7.19979 50.25183,-7.19979 27.739,0 50.25184,3.22551 50.25184,7.19979 l 0,57.59832 c 0,3.97429 -22.51284,7.19979 -50.25184,7.19979 -27.739,0 -50.25183,-3.2255 -50.25183,-7.19979 m 0,-57.59832 c 0,3.97429 22.51283,7.19979 50.25183,7.19979 27.739,0 50.25184,-3.2255 50.25184,-7.19979" />
      <text
         style="fill:none"
         id="text112-2"
         transform="translate(688.37597,203.8045)" />
    </g>
    <text
       xml:space="preserve"
       style="font-size:18.76418686px;font-style:normal;font-weight:normal;line-height:125%;letter-spacing:0px;word-spacing:0px;fill:#000000;fill-opacity:1;stroke:none;font-family:Sans"
       x="87"
       y="701.36218"
       id="text3903-3"
       sodipodi:linespacing="125%"><tspan
         sodipodi:role="line"
         x="87"
         y="701.36218"
         id="tspan3909-5"
         style="font-size:17.20050621px">Deconstruct</tspan><tspan
         sodipodi:role="line"
         x="87"
         y="722.86279"
         style="font-size:17.20050621px"
         id="tspan6327">Analysis URI</tspan></text>
    <rect
       style="fill:none;stroke:#000000;stroke-width:0.5;stroke-miterlimit:4;stroke-opacity:1;stroke-dasharray:none"
       id="rect3102-7"
       width="121.10504"
       height="61.366478"
       x="79.756721"
       y="676.49133" />
    <text
       xml:space="preserve"
       style="font-size:18.76418686px;font-style:normal;font-weight:normal;line-height:125%;letter-spacing:0px;word-spacing:0px;fill:#000000;fill-opacity:1;stroke:none;font-family:Sans"
       x="235"
       y="629.36218"
       id="text3889-8"
       sodipodi:linespacing="125%"><tspan
         sodipodi:role="line"
         id="tspan3891-3"
         x="235"
         y="629.36218"
         style="font-size:17.20050621px">Local Stats</tspan><tspan
         sodipodi:role="line"
         x="235"
         y="650.86279"
         style="font-size:17.20050621px"
         id="tspan6352">RDF Store</tspan></text>
    <path
       style="fill:none;stroke:#000000;stroke-width:1.56400001;stroke-linecap:butt;stroke-linejoin:miter;stroke-miterlimit:4;stroke-opacity:1;stroke-dasharray:none;marker-start:none;marker-end:url(#Arrow2Mend)"
       d="m 147.70997,630.62209 71.90786,0"
       id="path5570-3"
       inkscape:connector-type="polyline"
       inkscape:connector-curvature="0" />
    <text
       xml:space="preserve"
       style="font-size:40px;font-style:normal;font-weight:normal;line-height:125%;letter-spacing:0px;word-spacing:0px;fill:#000000;fill-opacity:1;stroke:none;font-family:Sans"
       x="155"
       y="624.36218"
       id="text6378"
       sodipodi:linespacing="125%"><tspan
         sodipodi:role="line"
         id="tspan6380"
         x="155"
         y="624.36218"
         style="font-size:12px;font-style:italic;-inkscape-font-specification:Sans Italic">otherwise</tspan></text>
    <text
       xml:space="preserve"
       style="font-size:40px;font-style:normal;font-weight:normal;line-height:125%;letter-spacing:0px;word-spacing:0px;fill:#000000;fill-opacity:1;stroke:none;font-family:Sans"
       x="229"
       y="701.36218"
       id="text6382"
       sodipodi:linespacing="125%"><tspan
         sodipodi:role="line"
         id="tspan6384"
         x="229"
         y="701.36218"
         style="font-size:17.20000076px">Construct and Send</tspan><tspan
         sodipodi:role="line"
         x="229"
         y="722.86218"
         id="tspan6386"
         style="font-size:17.20000076px">Federated Query</tspan></text>
    <rect
       style="fill:none;stroke:#000000;stroke-width:0.5;stroke-miterlimit:4;stroke-opacity:1;stroke-dasharray:none"
       id="rect3102-7-4"
       width="176.06096"
       height="60.258926"
       x="225.97801"
       y="677.24561" />
    <path
       style="fill:none;stroke:#000000;stroke-width:1.5636822px;stroke-linecap:butt;stroke-linejoin:miter;stroke-opacity:1;marker-start:none;marker-end:url(#Arrow2Mend)"
       d="m 200.80986,711.09105 23.45523,0"
       id="path5570-9"
       inkscape:connector-type="polyline"
       inkscape:connector-curvature="0" />
    <g
       transform="matrix(0.8902605,0,0,0.38790526,-189.06242,607.22961)"
       style="fill:none;stroke:none"
       id="id16_Graphic-9-3">
      <path
         style="fill:none"
         inkscape:connector-curvature="0"
         id="path108-6-0"
         d="m 683.37597,241.00376 0,-57.59832 c 0,-3.97428 22.51283,-7.19979 50.25183,-7.19979 27.739,0 50.25184,3.22551 50.25184,7.19979 l 0,57.59832 c 0,3.97429 -22.51284,7.19979 -50.25184,7.19979 -27.739,0 -50.25183,-3.2255 -50.25183,-7.19979" />
      <path
         style="fill:none;stroke:#000000;stroke-width:1.38687146;stroke-linecap:round;stroke-linejoin:round;stroke-miterlimit:4;stroke-dasharray:none"
         inkscape:connector-curvature="0"
         id="path110-9-1"
         d="m 683.37597,241.00376 0,-57.59832 c 0,-3.97428 22.51283,-7.19979 50.25183,-7.19979 27.739,0 50.25184,3.22551 50.25184,7.19979 l 0,57.59832 c 0,3.97429 -22.51284,7.19979 -50.25184,7.19979 -27.739,0 -50.25183,-3.2255 -50.25183,-7.19979 m 0,-57.59832 c 0,3.97429 22.51283,7.19979 50.25183,7.19979 27.739,0 50.25184,-3.2255 50.25184,-7.19979" />
      <text
         style="fill:none"
         id="text112-2-4"
         transform="translate(688.37597,203.8045)" />
      <path
         style="fill:none;stroke:none"
         inkscape:connector-curvature="0"
         id="path108-6-0-2"
         d="m 684.49922,331.23199 0,-57.59832 c 0,-3.97428 22.51283,-7.19979 50.25183,-7.19979 27.739,0 50.25184,3.22551 50.25184,7.19979 l 0,57.59832 c 0,3.97429 -22.51284,7.19979 -50.25184,7.19979 -27.739,0 -50.25183,-3.2255 -50.25183,-7.19979" />
      <path
         style="fill:none;stroke:#000000;stroke-width:1.38687146;stroke-linecap:round;stroke-linejoin:round;stroke-miterlimit:4;stroke-dasharray:none"
         inkscape:connector-curvature="0"
         id="path110-9-1-9"
         d="m 684.49922,331.23199 0,-57.59832 c 0,-3.97428 22.51283,-7.19979 50.25183,-7.19979 27.739,0 50.25184,3.22551 50.25184,7.19979 l 0,57.59832 c 0,3.97429 -22.51284,7.19979 -50.25184,7.19979 -27.739,0 -50.25183,-3.2255 -50.25183,-7.19979 m 0,-57.59832 c 0,3.97429 22.51283,7.19979 50.25183,7.19979 27.739,0 50.25184,-3.2255 50.25184,-7.19979" />
      <text
         xml:space="preserve"
         style="font-size:67.21232605px;font-style:normal;font-weight:normal;line-height:125%;letter-spacing:0px;word-spacing:0px;fill:#000000;fill-opacity:1;stroke:none;font-family:Sans"
         x="1059.9551"
         y="208.58098"
         id="text6457-8"
         sodipodi:linespacing="125%"
         transform="scale(0.65180036,1.5342121)"><tspan
           sodipodi:role="line"
           x="1059.9551"
           y="208.58098"
           style="font-size:23.52431107px"
           id="tspan6461-8">Endpoint Y</tspan></text>
    </g>
    <text
       xml:space="preserve"
       style="font-size:39.49756241px;font-style:normal;font-weight:normal;line-height:125%;letter-spacing:0px;word-spacing:0px;fill:#000000;fill-opacity:1;stroke:none;font-family:Sans"
       x="430.40631"
       y="687.61462"
       id="text6457"
       sodipodi:linespacing="125%"
       transform="scale(0.98743908,1.0127207)"><tspan
         sodipodi:role="line"
         x="430.40631"
         y="687.61462"
         style="font-size:13.82414627px"
         id="tspan6461">Endpoint X</tspan></text>
    <path
       style="fill:none;stroke:#000000;stroke-width:1.5636822px;stroke-linecap:butt;stroke-linejoin:miter;stroke-opacity:1;marker-end:url(#Arrow2Mend)"
       d="m 402.9628,701.92006 12.99635,-8.69513"
       id="path6120-4-6"
       inkscape:connector-type="polyline"
       inkscape:connector-curvature="0" />
    <path
       style="fill:none;stroke:#000000;stroke-width:1.5636822px;stroke-linecap:butt;stroke-linejoin:miter;stroke-opacity:1;marker-end:url(#Arrow2Mend)"
       d="m 402.44773,711.75363 14.15008,6.65474"
       id="path6120-4-6-7"
       inkscape:connector-type="polyline"
       inkscape:connector-curvature="0" />
    <path
       style="fill:none;stroke:#000000;stroke-width:1.5636822px;stroke-linecap:butt;stroke-linejoin:miter;stroke-opacity:1;marker-start:none;marker-end:url(#Arrow2Mend)"
       d="m 280.09557,941.09105 23.45523,0"
       id="path5570-9-4"
       inkscape:connector-type="polyline"
       inkscape:connector-curvature="0" />
    <text
       xml:space="preserve"
       style="font-size:18.76418686px;font-style:normal;font-weight:normal;line-height:125%;letter-spacing:0px;word-spacing:0px;fill:#000000;fill-opacity:1;stroke:none;font-family:Sans"
       x="316"
       y="932.36218"
       id="text3849-9"
       sodipodi:linespacing="125%"><tspan
         sodipodi:role="line"
         id="tspan3851-9"
         x="316"
         y="932.36218"
         style="font-size:17.20050621px">Construct view</tspan><tspan
         sodipodi:role="line"
         x="316"
         y="953.86279"
         style="font-size:17.20050621px"
         id="tspan6609">with Plot and Analysis</tspan></text>
    <rect
       style="fill:none;stroke:#000000;stroke-width:0.83479875;stroke-miterlimit:4;stroke-opacity:1;stroke-dasharray:none"
       id="rect3896-2"
       width="206.49832"
       height="49.510277"
       x="306.00079"
       y="913.09015" />
    <path
       style="fill:none;stroke:#000000;stroke-width:1.5636822px;stroke-linecap:butt;stroke-linejoin:miter;stroke-opacity:1;marker-start:none;marker-end:url(#Arrow2Mend)"
       d="m 248.45272,788.09105 23.45523,0"
       id="path5570-7"
       inkscape:connector-type="polyline"
       inkscape:connector-curvature="0" />
    <text
       xml:space="preserve"
       style="font-size:18.76418686px;font-style:normal;font-weight:normal;line-height:125%;letter-spacing:0px;word-spacing:0px;fill:#000000;fill-opacity:1;stroke:none;font-family:Sans"
       x="95"
       y="865.36218"
       id="text3952-9"
       sodipodi:linespacing="125%"
       inkscape:transform-center-x="-3.4744142"><tspan
         sodipodi:role="line"
         x="95"
         y="865.36218"
         id="tspan3956-5"
         style="font-size:17.20050621px">Shiny</tspan><tspan
         sodipodi:role="line"
         x="95"
         y="886.86279"
         style="font-size:17.20050621px"
         id="tspan6272-3">Cache</tspan></text>
    <g
       transform="matrix(0.81498834,0,0,0.81498834,-476.46646,692.28009)"
       style="fill:none;stroke:none"
       id="id16_Graphic-0">
      <path
         style="fill:none"
         inkscape:connector-curvature="0"
         id="path108-0"
         d="m 683.37597,241.00376 0,-57.59832 c 0,-3.97428 22.51283,-7.19979 50.25183,-7.19979 27.739,0 50.25184,3.22551 50.25184,7.19979 l 0,57.59832 c 0,3.97429 -22.51284,7.19979 -50.25184,7.19979 -27.739,0 -50.25183,-3.2255 -50.25183,-7.19979" />
      <path
         style="fill:none;stroke:#000000;stroke-width:1;stroke-linecap:round;stroke-linejoin:round"
         inkscape:connector-curvature="0"
         id="path110-5"
         d="m 683.37597,241.00376 0,-57.59832 c 0,-3.97428 22.51283,-7.19979 50.25183,-7.19979 27.739,0 50.25184,3.22551 50.25184,7.19979 l 0,57.59832 c 0,3.97429 -22.51284,7.19979 -50.25184,7.19979 -27.739,0 -50.25183,-3.2255 -50.25183,-7.19979 m 0,-57.59832 c 0,3.97429 22.51283,7.19979 50.25183,7.19979 27.739,0 50.25184,-3.2255 50.25184,-7.19979" />
      <text
         style="fill:none"
         id="text112-0"
         transform="translate(688.37597,203.8045)" />
    </g>
    <g
       transform="matrix(1.1532518,0,0,0.75949021,-612.78586,702.73472)"
       style="fill:none;stroke:none"
       id="id16_Graphic-9-0">
      <path
         style="fill:none"
         inkscape:connector-curvature="0"
         id="path108-6-3"
         d="m 683.37597,241.00376 0,-57.59832 c 0,-3.97428 22.51283,-7.19979 50.25183,-7.19979 27.739,0 50.25184,3.22551 50.25184,7.19979 l 0,57.59832 c 0,3.97429 -22.51284,7.19979 -50.25184,7.19979 -27.739,0 -50.25183,-3.2255 -50.25183,-7.19979" />
      <path
         style="fill:none;stroke:#000000;stroke-width:0.87083215;stroke-linecap:round;stroke-linejoin:round;stroke-miterlimit:4;stroke-dasharray:none"
         inkscape:connector-curvature="0"
         id="path110-9-4"
         d="m 683.37597,241.00376 0,-57.59832 c 0,-3.97428 22.51283,-7.19979 50.25183,-7.19979 27.739,0 50.25184,3.22551 50.25184,7.19979 l 0,57.59832 c 0,3.97429 -22.51284,7.19979 -50.25184,7.19979 -27.739,0 -50.25183,-3.2255 -50.25183,-7.19979 m 0,-57.59832 c 0,3.97429 22.51283,7.19979 50.25183,7.19979 27.739,0 50.25184,-3.2255 50.25184,-7.19979" />
      <text
         style="fill:none"
         id="text112-2-2"
         transform="translate(688.37597,203.8045)" />
    </g>
    <text
       xml:space="preserve"
       style="font-size:18.76418686px;font-style:normal;font-weight:normal;line-height:125%;letter-spacing:0px;word-spacing:0px;fill:#000000;fill-opacity:1;stroke:none;font-family:Sans"
       x="188"
       y="865.36218"
       id="text3889-8-1"
       sodipodi:linespacing="125%"><tspan
         sodipodi:role="line"
         id="tspan3891-3-9"
         x="188"
         y="865.36218"
         style="font-size:17.20050621px">Local Stats</tspan><tspan
         sodipodi:role="line"
         x="188"
         y="886.86279"
         style="font-size:17.20050621px"
         id="tspan6352-0">RDF Store</tspan></text>
    <text
       xml:space="preserve"
       style="font-size:40px;font-style:normal;font-weight:normal;line-height:125%;letter-spacing:0px;word-spacing:0px;fill:#000000;fill-opacity:1;stroke:none;font-family:Sans"
       x="-99.94976"
       y="581.17407"
       id="text6720"
       sodipodi:linespacing="125%"><tspan
         sodipodi:role="line"
         id="tspan6722"
         x="-99.94976"
         y="581.17407"
         style="font-size:17.20000076px">Request Analysis</tspan></text>
  </g>
</svg>
